<svg width="375" height="207" viewBox="0 0 375 207" fill="none" xmlns="http://www.w3.org/2000/svg">
<path opacity="0.7" fill-rule="evenodd" clip-rule="evenodd" d="M109.322 -304.417C167.431 -296.564 215.618 -269.783 264.911 -244.298C313.732 -219.057 362.103 -194.265 395.44 -156.491C433.665 -113.179 480.676 -64.7366 469.258 -12.7547C457.85 39.1821 386.89 66.5566 338.46 102.916C294.9 135.619 256.204 172.812 199.88 189.483C141.006 206.908 75.2 213.852 15.3897 198.536C-43.7015 183.404 -82.4722 142.157 -124.823 106.333C-168.759 69.1676 -225.823 35.7402 -236.31 -14.3753C-246.847 -64.7253 -205.686 -110.8 -180.07 -157.668C-153.855 -205.632 -140.547 -263.298 -84.815 -291.559C-29.0771 -319.823 43.9925 -313.245 109.322 -304.417Z" fill="#EFCE7E"/>
</svg>
